<?xml version="1.0" encoding="UTF-8" standalone="no"?>
<!-- Created with Inkscape (http://www.inkscape.org/) -->
<svg
   xmlns:dc="http://purl.org/dc/elements/1.1/"
   xmlns:cc="http://creativecommons.org/ns#"
   xmlns:rdf="http://www.w3.org/1999/02/22-rdf-syntax-ns#"
   xmlns:svg="http://www.w3.org/2000/svg"
   xmlns="http://www.w3.org/2000/svg"
   xmlns:sodipodi="http://sodipodi.sourceforge.net/DTD/sodipodi-0.dtd"
   xmlns:inkscape="http://www.inkscape.org/namespaces/inkscape"
   id="svg2501"
   sodipodi:version="0.32"
   inkscape:version="0.46"
   width="2000"
   height="1000"
   version="1.0"
   sodipodi:docname="es.svg"
   inkscape:output_extension="org.inkscape.output.svg.inkscape">
  <metadata
     id="metadata2506">
    <rdf:RDF>
      <cc:Work
         rdf:about="">
        <dc:format>image/svg+xml</dc:format>
        <dc:type
           rdf:resource="http://purl.org/dc/dcmitype/StillImage" />
      </cc:Work>
    </rdf:RDF>
  </metadata>
  <defs
     id="defs2504">
    <inkscape:perspective
       sodipodi:type="inkscape:persp3d"
       inkscape:vp_x="0 : 526.18109 : 1"
       inkscape:vp_y="0 : 1000 : 0"
       inkscape:vp_z="744.09448 : 526.18109 : 1"
       inkscape:persp3d-origin="372.04724 : 350.78739 : 1"
       id="perspective2508" />
  </defs>
  <sodipodi:namedview
     inkscape:window-height="1089"
     inkscape:window-width="2048"
     inkscape:pageshadow="2"
     inkscape:pageopacity="0.0"
     guidetolerance="10.0"
     gridtolerance="10.0"
     objecttolerance="10.0"
     borderopacity="1.0"
     bordercolor="#666666"
     pagecolor="#ffffff"
     id="base"
     showgrid="false"
     inkscape:zoom="0.40069384"
     inkscape:cx="-450.69707"
     inkscape:cy="294.13506"
     inkscape:window-x="0"
     inkscape:window-y="24"
     inkscape:current-layer="g2512" />
  <g
     id="g2512"
     transform="translate(-4.7058826e-8,-1.7647058e-6)">
    <g
       id="g3296"
       transform="scale(6.2617063,6.2617063)"
       style="opacity:0.46226415">
      <path
         id="path2516"
         d="M 3.3313407e-24,140 L 3.3313407e-24,120 L 120,120 L 320.11073,120 L 320.50929,140 L 320.50929,160.39856 L 120,160 L 3.3313407e-24,160 L 3.3313407e-24,140 z M 70.207542,99.25 C 70.042701,91.903155 69.699701,90 68.540442,90 C 67.4062,90 67.005795,91.838813 66.743988,98.25 L 66.407091,106.5 L 66.203545,98.25 C 66.087644,93.552364 65.56941,90 65,90 C 64.45,90 64,89.085877 64,87.968615 C 64,86.851354 63.325,85.678209 62.5,85.361626 C 61.675,85.045044 61,84.173291 61,83.424396 C 61,82.624904 61.619261,82.300402 62.5,82.638374 C 63.723423,83.107845 64,82.180136 64,77.606989 L 64,72 L 69.75,71.984687 C 73.831396,71.973818 75.064712,71.68807 74,71 C 72.965454,70.331425 74.827269,70.065086 80,70.141681 C 87.038479,70.245903 87.269239,70.31735 83.75,71.302734 L 80,72.352731 L 80,78.061355 C 80,83.047072 80.316586,83.977415 82.5,85.408043 C 83.875,86.308978 85,87.710732 85,88.523053 C 85,89.646625 86.315932,90 90.5,90 L 96,90 L 96,96.545455 C 96,102.16162 95.651515,103.43939 93.545455,105.54545 C 88.49796,110.59295 81.307509,107.71154 80.305336,100.23978 C 79.521524,94.396031 78.179806,94.923827 77.737242,101.25 L 77.369965,106.5 L 77.16967,100.5 C 76.844222,90.750961 75.033186,90.120482 75.015313,99.75 C 75.006361,104.57312 74.584621,108 74,108 C 73.407407,108 73,104.33333 73,99 C 73,87.108375 71.170973,87.311156 70.745068,99.25 L 70.415084,108.5 L 70.207542,99.25 z M 91.081787,106 C 91.586804,106 92,105.50186 92,104.89301 C 92,104.28417 91.325,104.04504 90.5,104.36163 C 89.456864,104.76192 89,104.29043 89,102.81363 C 89,100.7512 89.057794,100.74233 91.006131,102.50555 C 93.52732,104.78719 94.158334,104.15767 94.184376,99.334832 C 94.228989,91.072944 94.406749,91.375 89.5,91.375 C 87.025,91.375 85,91.740625 85,92.1875 C 85,92.634375 85.45,93 86,93 C 86.55,93 87,93.476558 87,94.059017 C 87,94.641476 86.590609,94.865016 86.090242,94.555773 C 83.870559,93.183933 82,95.297973 82,99.178417 C 82,104.19379 85.187008,107.57232 88.831787,106.42077 C 89.564271,106.18935 90.576771,106 91.081787,106 z M 85,103 C 85,102.45 85.45,102 86,102 C 86.55,102 87,102.45 87,103 C 87,103.55 86.55,104 86,104 C 85.45,104 85,103.55 85,103 z M 83.510081,100.01631 C 83.164618,99.45734 83.583524,99 84.440983,99 C 86.197509,99 86.456142,99.600055 85.069098,100.45729 C 84.557102,100.77373 83.855545,100.57528 83.510081,100.01631 z M 90.270833,99.395833 C 90.603125,99.063542 91.465625,99.028015 92.1875,99.316886 C 92.985233,99.636112 92.748276,99.873069 91.583333,99.921053 C 90.529167,99.964474 89.938542,99.728125 90.270833,99.395833 z M 91.5,97 C 91.160081,96.45 91.358524,96 91.940983,96 C 92.523442,96 93,96.45 93,97 C 93,97.55 92.801558,98 92.559017,98 C 92.316476,98 91.839919,97.55 91.5,97 z M 89,93.968615 C 89,93.435877 89.675,93 90.5,93 C 91.325,93 92,93.176855 92,93.393011 C 92,93.609167 91.325,94.045044 90.5,94.361626 C 89.675,94.678209 89,94.501354 89,93.968615 z M 82.989223,92.512986 C 84.555083,90.626239 83.547884,86.42422 81.325355,85.571356 C 80.284656,85.172002 78.86498,85.690576 77.636893,86.918663 C 75.943465,88.612091 75.816212,89.301213 76.798731,91.457608 C 78.089584,94.290721 81.089394,94.80214 82.989223,92.512986 z M 75.623721,81.75 C 75.711795,77.656763 75.37564,76 74.457055,76 C 73.747341,76 72.964752,75.4375 72.717967,74.75 C 72.418445,73.915581 71.555038,74.304151 70.120979,75.918754 C 68.485206,77.760467 68.116658,79.104919 68.576152,81.554233 C 68.93465,83.465191 68.730606,85.048461 68.073495,85.454578 C 65.990388,86.742009 68.18409,88.109796 71.842902,87.804827 L 75.5,87.5 L 75.623721,81.75 z M 51.015313,95.347825 C 51.004874,93.880726 51.894629,92.883781 53.810488,92.215909 C 55.356256,91.677051 57.402684,90.454459 58.358107,89.499036 C 59.313529,88.543614 60.354402,88.021069 60.671158,88.337824 C 61.928451,89.595118 59.893284,92.017749 56.328556,93.507187 C 54.2614,94.3709 52.223711,95.62262 51.800358,96.288787 C 51.302784,97.071745 51.025211,96.739045 51.015313,95.347825 z M 108,96.10858 C 108,95.618299 106.23827,94.512257 104.08505,93.650709 C 99.603604,91.857588 98.288874,90.311126 99.887132,88.712868 C 100.70429,87.895711 101,87.921015 101,88.808097 C 101,89.47255 102.8,90.736411 105,91.616677 C 107.69267,92.69407 109,93.835336 109,95.10858 C 109,96.148861 108.775,97 108.5,97 C 108.225,97 108,96.598861 108,96.10858 z M 51.032479,87.060688 C 50.384213,85.849391 50.35217,84.900381 50.947122,84.53268 C 51.777313,84.019594 54,86.860188 54,88.434259 C 54,89.771373 51.983723,88.838103 51.032479,87.060688 z M 106.98635,88.372445 C 106.97884,87.8926 106.70135,86.4875 106.36971,85.25 C 106.00793,83.899995 106.21339,83 106.88337,83 C 107.49752,83 108.03163,84.0125 108.07029,85.25 C 108.13735,87.396901 108.17995,87.408356 109,85.5 C 109.66123,83.961228 109.87564,83.875337 109.92971,85.127555 C 109.96837,86.022711 109.325,87.315311 108.5,88 C 107.675,88.684689 106.99386,88.852289 106.98635,88.372445 z M 56.078947,83.75 C 56.028888,82.640351 56.73183,82 58,82 C 59.111111,82 60,82.666667 60,83.5 C 60,84.325 59.523442,85 58.940983,85 C 58.358524,85 58.160081,84.55 58.5,84 C 58.839919,83.45 58.678976,83 58.14235,83 C 57.605724,83 56.939693,83.5625 56.662281,84.25 C 56.360964,84.996741 56.12611,84.795438 56.078947,83.75 z M 96,84 C 96,83.45 96.45,83 97,83 C 97.55,83 98,83.45 98,84 C 98,84.55 97.55,85 97,85 C 96.45,85 96,84.55 96,84 z M 101.21057,83.461963 C 100.14523,82.254065 100.18867,82 101.46057,82 C 102.30726,82 103,82.675 103,83.5 C 103,85.323667 102.84975,85.320473 101.21057,83.461963 z M 70.325126,65.925126 C 69.740075,65.340075 68.439477,64.740765 67.434908,64.593325 C 64.573829,64.173408 64.581208,62.147937 67.448576,60.841477 C 70.69391,59.362804 73.07918,60.994742 71.121081,63.354106 C 70.13253,64.545238 70.363534,64.767754 72.462756,64.646488 C 74.815908,64.510553 76.226236,63 74,63 C 72.385957,63 72.854064,60.269979 74.581787,59.606989 C 76.991681,58.682226 77.732821,58.86136 78.37033,60.522681 C 79.073415,62.354891 75.377325,66.351233 73.851722,65.408359 C 73.260291,65.042835 72.464197,65.248914 72.082624,65.866312 C 71.592401,66.659508 71.076764,66.676764 70.325126,65.925126 z M 87.5,65 C 87.150874,63.9 86.397404,63 85.825624,63 C 85.253843,63 85.045044,63.675 85.361626,64.5 C 86.143064,66.536395 85.010086,66.396052 83.450561,64.263275 C 82.244808,62.614309 82.083665,62.614309 80.261578,64.263275 C 78.024451,66.287847 77,66.4669 77,64.833333 C 77,64.191667 77.291815,63.958482 77.648479,64.315145 C 78.301241,64.967908 81.596437,61.710689 82.241719,59.774842 C 82.862873,57.911381 86.783702,60.002062 87.419638,62.535835 C 87.759794,63.891126 88.479531,65 89.019052,65 C 89.558573,65 90,65.45 90,66 C 90,67.791812 88.151397,67.052371 87.5,65 z M 89.667774,64.014731 C 88.126561,61.405667 88.08385,60.905054 89.360657,60.415097 C 91.300541,59.670694 95.233973,61.798081 94.727432,63.317704 C 94.510678,63.967967 93.966185,64.275 93.517448,64 C 93.068711,63.725 92.42175,64.297684 92.079757,65.272631 C 91.551471,66.778658 91.188709,66.58947 89.667774,64.014731 z M 81,65.559017 C 81,65.316476 81.45,64.839919 82,64.5 C 82.55,64.160081 83,64.358524 83,64.940983 C 83,65.523442 82.55,66 82,66 C 81.45,66 81,65.801558 81,65.559017 z M 3.3313407e-24,20 L 3.3313407e-24,5.4525828e-14 L 120,5.4525828e-14 L 320.11073,5.4525828e-14 L 319.31361,19.601439 L 320.11073,40 L 120,40 L 3.3313407e-24,40 L 3.3313407e-24,20 z"
         style="fill:#4e4e4e;fill-opacity:0.39215686000000000"
         sodipodi:nodetypes="ccccccccccscccssssscccsscccsscccsscccsssccccssssssssssssccsssccssccssccsssccsssccsssccsssssccccsssssccssssssccssccssssssccssssssccsssccssccsssssssssccssssssssssccssssccssscccccccccc" />
      <path
         id="path2524"
         d="M 1.2181527e-24,80 L 1.2181527e-24,1.8221535e-14 L 120,1.8221535e-14 L 319.71217,1.8221535e-14 L 320.11073,80 L 320.50929,160 L 120,160 L 1.2181527e-24,160 L 1.2181527e-24,80 z M 86.699454,109.20691 C 87.359154,108.78755 84.581899,108.44444 80.527778,108.44444 C 76.473656,108.44444 73.37296,108.79444 73.637341,109.22222 C 74.255829,110.22296 85.121121,110.21022 86.699454,109.20691 z M 79,106.94098 C 79,106.35852 78.55,106.16008 78,106.5 C 77.45,106.83992 77,107.31648 77,107.55902 C 77,107.80156 77.45,108 78,108 C 78.55,108 79,107.52344 79,106.94098 z M 82.5,106 C 81.504514,104.9 80.197269,104.03553 79.595012,104.07895 C 78.962931,104.12452 79.028455,104.37113 79.75,104.66228 C 80.4375,104.93969 81,105.80417 81,106.58333 C 81,107.3625 81.744744,108 82.654988,108 C 84.143308,108 84.1277,107.79859 82.5,106 z M 57.418213,101.39301 C 58.482646,100.98455 59,99.523278 59,96.925235 C 59,93.343373 58.837448,93.124125 56.75,93.890479 C 55.078144,94.50426 54.420251,95.652267 54.189635,98.358255 C 53.879357,101.99897 54.447481,102.53299 57.418213,101.39301 z M 105.41821,101.39301 C 108.05886,100.3797 107.40856,95.507183 104.45295,94.160515 C 100.95341,92.566017 101,92.52995 101,96.833333 C 101,101.84794 101.87621,102.75221 105.41821,101.39301 z M 58,89.046604 C 58,88.560938 58.259827,87.486477 58.577393,86.658912 C 58.983658,85.600203 58.613182,85.256905 57.327393,85.500614 C 56.322327,85.691114 55.1625,85.881408 54.75,85.923489 C 54.3375,85.96557 54,87.365833 54,89.035184 C 54,91.76049 54.20419,91.961088 56,91 C 57.1,90.411298 58,89.53227 58,89.046604 z M 106.45842,88.690356 C 105.82275,86.157656 103.55989,84.535934 102.00364,85.497752 C 100.56696,86.385669 102.20365,90.13913 104.38845,90.966881 C 107.06536,91.981079 107.23697,91.792348 106.45842,88.690356 z M 96,80.957936 L 96,71.915871 L 88.25,72.207936 L 80.5,72.5 L 80.221908,78 C 79.968406,83.013682 80.163383,83.600334 82.427001,84.634722 C 84.192978,85.441708 85.014563,85.456311 85.271572,84.685284 C 85.470335,84.088995 85.935389,84.389242 86.305025,85.352499 C 86.706868,86.399686 86.579619,86.858224 85.988546,86.492921 C 84.891598,85.81497 84.612368,88.279034 85.666667,89.333333 C 86.033333,89.7 88.508333,90 91.166667,90 L 96,90 L 96,80.957936 z M 90,86.5 C 90,85.675 90.176855,85 90.393011,85 C 90.609167,85 91.045044,85.675 91.361626,86.5 C 91.678209,87.325 91.501354,88 90.968615,88 C 90.435877,88 90,87.325 90,86.5 z M 89.458881,74.933469 C 88.382611,73.192026 89.608403,72.823228 90.979944,74.475834 C 91.768693,75.426218 91.844555,76 91.181462,76 C 90.596576,76 89.821415,75.520061 89.458881,74.933469 z M 59,79.5 C 59,77.5 58.5,77 56.5,77 C 54.5,77 54,77.5 54,79.5 C 54,81.5 54.5,82 56.5,82 C 58.5,82 59,81.5 59,79.5 z M 107,79.5 C 107,77.388889 106.53333,77 104,77 C 101.46667,77 101,77.388889 101,79.5 C 101,81.611111 101.46667,82 104,82 C 106.53333,82 107,81.611111 107,79.5 z"
         style="fill:#959595;fill-opacity:0.39215686000000000"
         sodipodi:nodetypes="ccccccccccssccsssccssssccsssccssccsssssccssccccccsssssccccsssccssccsssccsssc" />
      <path
         id="path2518"
         d="M 1.2181527e-24,140 L 1.2181527e-24,120 L 120,120 L 320.50929,120 L 318.91505,140 L 320.11073,160 L 120,160 L 1.2181527e-24,160 L 1.2181527e-24,140 z M 51.20112,107.69675 C 51.445611,106.07072 52.318896,105.69015 56,105.60544 C 59.786217,105.51831 60.5457,105.82056 60.78811,107.51101 C 61.043067,109.28896 60.490872,109.5296 55.98923,109.60233 C 51.457009,109.67555 50.934835,109.46774 51.20112,107.69675 z M 99.21321,107.6045 C 99.442962,106.08598 100.39499,105.68839 104,105.60544 C 107.77885,105.51847 108.54596,105.82224 108.78679,107.50094 C 109.04126,109.2747 108.50176,109.5 104,109.5 C 99.585452,109.5 98.963672,109.25378 99.21321,107.6045 z M 70.697766,108.36443 C 70.313995,107.98066 70,103.69167 70,98.833333 C 70,91.648148 69.720126,90 68.5,90 C 67.304327,90 66.958704,91.673798 66.796455,98.25 L 66.592909,106.5 L 66.256012,98.25 C 66.070719,93.7125 65.487314,90 64.959558,90 C 64.431801,90 64,89.085877 64,87.968615 C 64,86.851354 63.325,85.678209 62.5,85.361626 C 61.675,85.045044 61,84.173291 61,83.424396 C 61,82.624904 61.619261,82.300402 62.5,82.638374 C 63.723423,83.107845 64,82.180136 64,77.606989 L 64,72 L 69.75,71.90032 C 74.138292,71.824246 74.907953,71.611033 73,71 C 71.323572,70.463114 73.300146,70.191585 79,70.175758 C 87.005445,70.153529 87.29636,70.225396 84,71.410954 C 80.644315,72.617848 80.488533,72.893034 80.221908,78.084876 C 79.969059,83.008475 80.169212,83.602997 82.427001,84.634722 C 84.192978,85.441708 85.014563,85.456311 85.271572,84.685284 C 85.470335,84.088995 85.935389,84.389242 86.305025,85.352499 C 86.739319,86.484251 86.59334,86.866704 85.892414,86.433508 C 85.225466,86.021312 84.944645,86.482707 85.163234,87.63157 C 85.447158,89.123822 86.573849,89.560855 90.759366,89.80226 L 96,90.104519 L 96,96.877946 C 96,106.2415 94.080443,108.06494 83.956757,108.31817 L 76.687548,108.5 L 76.862659,101.5 C 76.95897,97.65 76.586163,93.825 76.034198,93 C 75.322153,91.935735 75.026177,93.896543 75.015313,99.75 C 75.006891,104.2875 74.811804,108 74.581787,108 C 74.351771,108 73.540765,108.23899 72.779553,108.5311 C 72.018341,108.8232 71.081537,108.7482 70.697766,108.36443 z M 73,99 C 73,93.666667 72.592593,90 72,90 C 71.407407,90 71,93.666667 71,99 C 71,104.33333 71.407407,108 72,108 C 72.592593,108 73,104.33333 73,99 z M 82.174314,105.68555 C 80.753853,104.17354 80,102.09329 80,99.685549 C 80,97.658497 79.55,96 79,96 C 77.208653,96 77.843159,104.15739 79.75,105.64221 C 81.248515,106.80908 81.263051,106.92291 79.851151,106.43428 C 78.944283,106.12043 77.905226,106.34433 77.542134,106.93183 C 77.118962,107.61653 78.222206,108 80.615297,108 L 84.348628,108 L 82.174314,105.68555 z M 91.081787,106 C 91.586804,106 92,105.50186 92,104.89301 C 92,104.28417 91.325,104.04504 90.5,104.36163 C 89.456864,104.76192 89,104.29043 89,102.81363 C 89,100.7512 89.057794,100.74233 91.006131,102.50555 C 93.52732,104.78719 94.158334,104.15767 94.184376,99.334832 C 94.228989,91.072944 94.406749,91.375 89.5,91.375 C 87.025,91.375 85,91.740625 85,92.1875 C 85,92.634375 85.45,93 86,93 C 86.55,93 87,93.476558 87,94.059017 C 87,94.641476 86.590609,94.865016 86.090242,94.555773 C 83.870559,93.183933 82,95.297973 82,99.178417 C 82,104.19379 85.187008,107.57232 88.831787,106.42077 C 89.564271,106.18935 90.576771,106 91.081787,106 z M 85,103 C 85,102.45 85.45,102 86,102 C 86.55,102 87,102.45 87,103 C 87,103.55 86.55,104 86,104 C 85.45,104 85,103.55 85,103 z M 83.510081,100.01631 C 83.164618,99.45734 83.583524,99 84.440983,99 C 86.197509,99 86.456142,99.600055 85.069098,100.45729 C 84.557102,100.77373 83.855545,100.57528 83.510081,100.01631 z M 90.270833,99.395833 C 90.603125,99.063542 91.465625,99.028015 92.1875,99.316886 C 92.985233,99.636112 92.748276,99.873069 91.583333,99.921053 C 90.529167,99.964474 89.938542,99.728125 90.270833,99.395833 z M 91.5,97 C 91.160081,96.45 91.358524,96 91.940983,96 C 92.523442,96 93,96.45 93,97 C 93,97.55 92.801558,98 92.559017,98 C 92.316476,98 91.839919,97.55 91.5,97 z M 89,93.968615 C 89,93.435877 89.675,93 90.5,93 C 91.325,93 92,93.176855 92,93.393011 C 92,93.609167 91.325,94.045044 90.5,94.361626 C 89.675,94.678209 89,94.501354 89,93.968615 z M 71,86.5 C 71,85.675 71.45,85 72,85 C 72.55,85 73,85.7125 73,86.583333 C 73,87.454167 73.5625,87.981491 74.25,87.755164 C 74.94862,87.525177 75.634445,85.2829 75.804791,82.671831 C 76.061133,78.742637 75.822692,77.988827 74.304791,77.929715 C 72.698505,77.86716 72.719975,77.764903 74.5,77 C 76.096028,76.314163 76.163357,76.126374 74.833333,76.070285 C 73.916667,76.031628 72.980506,75.441518 72.752976,74.758929 C 72.451688,73.855063 71.888061,73.969082 70.678571,75.178571 C 69.45206,76.405083 69.342342,76.970382 70.258929,77.340695 C 70.98975,77.635957 70.780511,77.874563 69.75,77.921053 C 67.62311,78.017003 67.380901,81 69.5,81 C 71.669264,81 71.341688,83.305519 68.961197,84.79216 C 66.799817,86.141964 67.146084,88 69.559017,88 C 70.351558,88 71,87.325 71,86.5 z M 73,82.5 C 73,81.675 73.45,81 74,81 C 74.55,81 75,81.675 75,82.5 C 75,83.325 74.55,84 74,84 C 73.45,84 73,83.325 73,82.5 z M 51.015313,95.435212 C 51.005057,94.052271 52.15579,92.819267 54.5,91.701391 C 56.425,90.783422 58,89.3642 58,88.547563 C 58,87.638589 58.581717,87.285995 59.5,87.638374 C 62.727434,88.876856 60.028754,93.001716 55,94.516501 C 53.625,94.930685 52.169391,95.771411 51.765313,96.384781 C 51.328368,97.048042 51.02442,96.663215 51.015313,95.435212 z M 108,96.200888 C 108,95.761377 106.46919,94.848228 104.59819,94.171668 C 100.6624,92.748467 98.529514,90.570279 99.513188,88.978662 C 99.999231,88.192228 100.67863,88.264739 101.84928,89.227987 C 102.75717,89.975037 104.7375,91.205392 106.25,91.96211 C 107.7625,92.718827 109,94.161919 109,95.16898 C 109,96.176041 108.775,97 108.5,97 C 108.225,97 108,96.6404 108,96.200888 z M 51.032479,87.060688 C 50.384213,85.849391 50.35217,84.900381 50.947122,84.53268 C 51.777313,84.019594 54,86.860188 54,88.434259 C 54,89.771373 51.983723,88.838103 51.032479,87.060688 z M 107,87.622445 C 107,86.7301 106.2125,85.993109 105.25,85.984687 C 103.75183,85.971578 103.71585,85.827677 105,84.984687 C 106.33333,84.10941 106.33333,83.878408 105,82.905668 C 103.74728,81.99174 103.80198,81.909313 105.33179,82.405668 C 106.33927,82.73255 107.35177,83 107.58179,83 C 107.8118,83 108.03163,84.0125 108.07029,85.25 C 108.13735,87.396901 108.17995,87.408356 109,85.5 C 109.66123,83.961228 109.87564,83.875337 109.92971,85.127555 C 109.96837,86.022711 109.325,87.315311 108.5,88 C 107.27149,89.019571 107,88.951235 107,87.622445 z M 90,86.5 C 90,85.675 90.176855,85 90.393011,85 C 90.609167,85 91.045044,85.675 91.361626,86.5 C 91.678209,87.325 91.501354,88 90.968615,88 C 90.435877,88 90,87.325 90,86.5 z M 54,83.993725 C 54,82.445142 54.669814,82 57,82 C 59,82 60,82.5 60,83.5 C 60,84.325 59.6625,85.03344 59.25,85.07431 C 58.8375,85.115181 57.4875,85.337357 56.25,85.568036 C 54.528782,85.888882 54,85.518897 54,83.993725 z M 59,83.440983 C 59,83.198442 58.55,83 58,83 C 57.45,83 57,83.476558 57,84.059017 C 57,84.641476 57.45,84.839919 58,84.5 C 58.55,84.160081 59,83.683524 59,83.440983 z M 96,84.559017 C 96,83.701558 96.45,83 97,83 C 97.55,83 98,83.423442 98,83.940983 C 98,84.458524 97.55,85.160081 97,85.5 C 96.45,85.839919 96,85.416476 96,84.559017 z M 101.21057,83.461963 C 100.14523,82.254065 100.18867,82 101.46057,82 C 102.30726,82 103,82.675 103,83.5 C 103,85.323667 102.84975,85.320473 101.21057,83.461963 z M 89.872445,74.25 C 88.628574,72.663944 88.663944,72.628574 90.25,73.872445 C 91.915748,75.178814 92.445479,76 91.622445,76 C 91.414789,76 90.627289,75.2125 89.872445,74.25 z M 68.321429,65.581169 C 68.419643,65.036526 67.8625,64.570455 67.083333,64.545455 C 64.542282,64.463923 64.779569,62.057557 67.448576,60.841477 C 70.69391,59.362804 73.07918,60.994742 71.121081,63.354106 C 70.13253,64.545238 70.363534,64.767754 72.462756,64.646488 C 74.815908,64.510553 76.226236,63 74,63 C 72.385957,63 72.854064,60.269979 74.581787,59.606989 C 75.451771,59.273145 76.528626,59 76.974799,59 C 78.356101,59 79.132957,62.299794 77.927107,63.04505 C 77.099636,63.556455 77.090338,63.937798 77.893237,64.434017 C 78.501957,64.810226 79,64.641476 79,64.059017 C 79,63.476558 79.5051,63 80.122445,63 C 80.904593,63 80.872431,63.448786 80.016358,64.48029 C 79.213605,65.447548 77.611578,65.809984 75.393913,65.526052 C 73.527261,65.287062 72,65.424503 72,65.831476 C 72,66.23845 71.132143,66.571429 70.071429,66.571429 C 69.010714,66.571429 68.223214,66.125812 68.321429,65.581169 z M 87.479162,64.934345 C 87.141496,63.870455 86.397404,63 85.825624,63 C 85.253843,63 85.023459,63.61875 85.313659,64.375 C 85.672485,65.310085 85.060855,65.75 83.401944,65.75 C 81.445573,65.75 81.188535,65.477756 82.103741,64.375 C 82.938277,63.369445 82.943302,63 82.122445,63 C 80.789772,63 80.709171,62.007324 81.890467,60.142988 C 83.168184,58.126478 86.696161,59.653273 87.419638,62.535835 C 87.759794,63.891126 88.495363,65 89.054236,65 C 89.721839,65 89.700513,64.30892 88.99206,62.985163 C 87.62117,60.423633 89.845657,59.311847 92.982625,60.990701 C 95.126193,62.137904 95.238977,64.719773 93.125,64.25 C 92.50625,64.1125 92,64.579238 92,65.287196 C 92,67.378294 88.159709,67.07856 87.479162,64.934345 z M 1.2181527e-24,20 L 1.2181527e-24,1.8221535e-14 L 120,1.8221535e-14 L 319.31361,1.8221535e-14 L 319.71217,20 L 319.71217,40 L 120,40 L 1.2181527e-24,40 L 1.2181527e-24,20 z"
         style="fill:#515151;fill-opacity:0.39215686000000000"
         sodipodi:nodetypes="ccccccccccsssccsssccsscccssssscccsssssssssccccccssssccsssccsssssccccssssssssssssccsssccssccssccsssccsssccssssssssssssssccsssccsssssccssssssccssccsssssssssccsssccssssccsssccsssccssccssccsssssssssssssssccsssssssssssscccccccccc" />
      <path
         id="path2522"
         d="M 1.2181527e-24,140 L 1.2181527e-24,120 L 120,120 L 319.31361,120 L 319.31361,140 L 319.31361,160 L 120,160 L 1.2181527e-24,160 L 1.2181527e-24,140 z M 78.25,110.31067 C 79.2125,110.05915 80.7875,110.05915 81.75,110.31067 C 82.7125,110.5622 81.925,110.768 80,110.768 C 78.075,110.768 77.2875,110.5622 78.25,110.31067 z M 51,108.321 C 51,107.39755 51.534503,105.16385 52.187784,103.35724 C 53.194915,100.57207 53.118869,99.78883 51.687784,98.207499 C 49.596983,95.89719 49.507967,93.126041 51.5,92.361626 C 53.556526,91.572463 53.38271,90.38271 50.83932,87.83932 L 48.67864,85.67864 L 50.924928,83.859706 C 52.960236,82.211614 53.120136,81.423875 52.627376,75.472711 C 52.122026,69.369494 52.239821,68.845613 54.291768,68.070491 C 57.851685,66.725734 59.821875,68.439563 59.65047,72.731917 C 59.517775,76.054884 59.175148,76.537378 56.75,76.816422 C 54.590031,77.064954 54,77.654985 54,79.566422 C 54,81.820049 54.369725,82 59,82 L 64,82 L 64,77.063358 C 64,72.22476 64.064546,72.120494 67.25,71.813358 L 70.5,71.5 L 66.25,67.170793 C 63.9125,64.789729 62,62.046973 62,61.07578 C 62,58.154498 65.390881,55.9919 71.85677,54.789442 C 76.266068,53.969448 78.137753,53.141339 78.555308,51.825741 C 78.874015,50.821584 79.806009,50 80.626405,50 C 81.446801,50 81.896169,50.358986 81.625,50.797746 C 80.59831,52.458965 82.693924,53.703183 88.422536,54.833614 C 94.703855,56.07311 98,58.205564 98,61.029792 C 98,61.975691 96.033312,64.802223 93.629583,67.310974 C 89.936079,71.165852 88.580832,71.920948 84.879583,72.18617 L 80.5,72.5 L 80.221908,78 C 79.968406,83.013682 80.163383,83.600334 82.427001,84.634722 C 84.192978,85.441708 85.014563,85.456311 85.271572,84.685284 C 85.470335,84.088995 85.935389,84.389242 86.305025,85.352499 C 86.739319,86.484251 86.59334,86.866704 85.892414,86.433508 C 85.225466,86.021312 84.944645,86.482707 85.163234,87.63157 C 85.447158,89.123822 86.573849,89.560855 90.759366,89.80226 L 96,90.104519 L 96.184982,80.80226 C 96.302209,74.907253 96.504492,73.422982 96.737242,76.75 L 97.104519,82 L 101.618,82 C 105.33604,82 109.01228,83.01744 110.83102,84.549808 C 111.01308,84.703203 110.65975,85.767248 110.04584,86.914354 C 108.78921,89.262381 106,89.739886 106,87.606989 C 106,85.748909 104.18823,85.162426 100.25,85.745675 L 97,86.226999 L 97,94.390993 C 97,103.68692 95.755073,106.36874 90.401426,108.60563 C 86.800621,110.11015 84.756177,110.44221 86.699454,109.20691 C 87.359154,108.78755 84.581899,108.44444 80.527778,108.44444 C 76.473656,108.44444 73.402755,108.84265 73.703553,109.32936 C 74.522762,110.65486 69.855029,109.08709 67.044143,107.09263 C 63.847183,104.82422 62.647829,99.999269 63.354666,92.25 C 63.911555,86.144648 63.867761,85.997107 61.462375,85.875 C 54.276092,85.510196 54,85.627116 54,89.035184 C 54,91.76049 54.20419,91.961088 56,91 C 57.1,90.411298 58,89.270465 58,88.464816 C 58,86.495748 60.629791,86.592868 61.396256,88.590242 C 62.24357,90.798308 61.301926,91.975901 57.377923,93.615454 C 54.428838,94.84766 54,95.483235 54,98.621828 C 54,101.98801 54.164411,102.17555 56.583178,101.56848 C 58.644832,101.05104 59.274056,101.33199 59.699809,102.96007 C 59.993209,104.08203 60.630779,105 61.116631,105 C 61.602484,105 62,106.125 62,107.5 C 62,109.86364 61.7,110 56.5,110 C 52.01717,110 51,109.68949 51,108.321 z M 79,106.94098 C 79,106.35852 78.55,106.16008 78,106.5 C 77.45,106.83992 77,107.31648 77,107.55902 C 77,107.80156 77.45,108 78,108 C 78.55,108 79,107.52344 79,106.94098 z M 82.5,106 C 81.504514,104.9 80.197269,104.03553 79.595012,104.07895 C 78.962931,104.12452 79.028455,104.37113 79.75,104.66228 C 80.4375,104.93969 81,105.80417 81,106.58333 C 81,107.3625 81.744744,108 82.654988,108 C 84.143308,108 84.1277,107.79859 82.5,106 z M 70,58.813872 C 70,57.503853 65.745156,58.230889 65.288693,59.618905 C 65.056477,60.32503 65.857636,60.558709 67.460365,60.252328 C 68.857164,59.985313 70,59.338007 70,58.813872 z M 94.541119,59.066531 C 93.731272,57.756173 90,57.644359 90,58.930449 C 90,59.442196 91.0125,60.022612 92.25,60.220262 C 94.9861,60.657265 95.396516,60.450593 94.541119,59.066531 z M 76.418213,58.393011 C 77.288196,58.059167 78,57.352869 78,56.82346 C 78,55.432974 73.734323,56.264165 73.244995,57.75 C 72.796687,59.111277 73.941767,59.343313 76.418213,58.393011 z M 86.755005,57.75 C 86.260689,56.249021 82,55.439998 82,56.847116 C 82,57.89907 83.650024,58.791778 85.833333,58.921053 C 86.566667,58.964474 86.981419,58.4375 86.755005,57.75 z M 98,108.52417 C 98,105.56473 101.45795,101.50274 104.12539,101.3288 C 106.88798,101.14865 109,104.05946 109,108.04705 C 109,109.74759 108.28916,110 103.5,110 C 99.31781,110 98,109.64639 98,108.52417 z M 107.45664,97.319148 C 107.06791,96.022352 105.22136,94.505491 102.90145,93.577245 C 99.818148,92.343552 99,91.490238 99,89.508097 C 99,86.555907 101.52621,86.080241 102.262,88.893888 C 102.55819,90.026531 104.03905,91.069303 105.9462,91.488184 C 109.64224,92.299971 110.70058,94.201758 109.18337,97.305215 L 108.11038,99.5 L 107.45664,97.319148 z M 90,86.5 C 90,85.675 90.176855,85 90.393011,85 C 90.609167,85 91.045044,85.675 91.361626,86.5 C 91.678209,87.325 91.501354,88 90.968615,88 C 90.435877,88 90,87.325 90,86.5 z M 100.8576,76.25 C 99.96305,71.53872 100.357,68.879308 102.08656,67.953674 C 103.39214,67.254952 104.60786,67.254952 105.91344,67.953674 C 107.643,68.879308 108.03695,71.53872 107.1424,76.25 C 107.06408,76.6625 105.65,77 104,77 C 102.35,77 100.93592,76.6625 100.8576,76.25 z M 89.458881,74.933469 C 88.382611,73.192026 89.608403,72.823228 90.979944,74.475834 C 91.768693,75.426218 91.844555,76 91.181462,76 C 90.596576,76 89.821415,75.520061 89.458881,74.933469 z M 1.2181527e-24,20 L 1.2181527e-24,1.8221535e-14 L 120,1.8221535e-14 L 318.91505,1.8221535e-14 L 319.71217,20 L 320.11073,40 L 120,40 L 1.2181527e-24,40 L 1.2181527e-24,20 z"
         style="fill:#828282;fill-opacity:0.39215686000000000"
         sodipodi:nodetypes="ccccccccccssccssscccsssssccccccsssssssscccsssssccccccssscccssssssssssssssssssccsssccssssccssccssccssccssccsssccssssccccsssccssssccsscccccccccc" />
      <path
         id="path2520"
         d="M 1.2181527e-24,140 L 1.2181527e-24,120 L 120,120 L 319.31361,120 L 318.91505,140 L 320.50929,160 L 120,160 L 1.2181527e-24,160 L 1.2181527e-24,140 z M 51.193381,107.65131 C 51.450537,105.84705 52.266259,105.45083 56.25,105.19521 C 60.641167,104.91344 61,105.06593 61,107.2138 C 61,109.32116 60.529853,109.54952 55.943381,109.6699 C 51.306606,109.79161 50.912221,109.62401 51.193381,107.65131 z M 99.197922,107.61667 C 99.454411,105.81944 100.17913,105.5 104,105.5 C 107.82087,105.5 108.54559,105.81944 108.80208,107.61667 C 109.07588,109.53521 108.62641,109.73333 104,109.73333 C 99.37359,109.73333 98.924117,109.53521 99.197922,107.61667 z M 67.64389,107.3214 C 66.18975,106.5595 64.965574,105.613 64.923498,105.21806 C 64.881422,104.82313 64.756477,100.58756 64.645844,95.805679 C 64.53521,91.023803 64.144252,86.810918 63.777047,86.443714 C 62.932664,85.599331 56.909308,85.0985 55.25,85.734707 C 54.5625,85.998306 54,86.840833 54,87.606989 C 54,89.830456 51.203415,89.216264 50.444837,86.826196 C 49.449958,83.691611 52.340333,82 58.69113,82 L 64,82 L 64,77 L 64,72 L 68.071202,72 L 72.142404,72 L 68.431323,68.5 C 66.390228,66.575 65.120687,64.993109 65.610121,64.984687 C 66.099554,64.976265 65.982477,64.638765 65.34995,64.234687 C 63.057329,62.770091 63.314283,58.475034 65.75,57.547743 C 67.153147,57.013557 67.252248,57.131093 66.25,58.140754 C 65.5625,58.833339 65,59.731708 65,60.137129 C 65,60.916506 70.344584,60.346624 75.698295,58.996393 C 77.851574,58.453326 79.076854,58.567192 79.448295,59.344884 C 79.865489,60.218372 80.134511,60.218372 80.551705,59.344884 C 80.923397,58.566666 82.146969,58.453555 84.301705,58.998222 C 86.060767,59.442872 89.499672,60.094432 91.943716,60.446132 L 96.387431,61.085588 L 94.499782,58.99976 C 92.872089,57.201179 92.845412,57.003449 94.306067,57.563954 C 96.691259,58.479239 96.913483,62.788738 94.65005,64.234687 C 94.017523,64.638765 93.872115,64.976265 94.326923,64.984687 C 94.781731,64.993109 93.714301,66.439546 91.954856,68.19899 C 89.754052,70.399795 87.46782,71.569913 84.627933,71.94899 L 80.5,72.5 L 80.221908,78 C 79.968406,83.013682 80.163383,83.600334 82.427001,84.634722 C 84.192978,85.441708 85.014563,85.456311 85.271572,84.685284 C 85.470335,84.088995 85.935389,84.389242 86.305025,85.352499 C 86.739319,86.484251 86.59334,86.866704 85.892414,86.433508 C 85.225426,86.021287 84.944768,86.482639 85.163587,87.63157 C 85.453414,89.153342 86.584456,89.555642 91.259718,89.799904 L 97,90.099808 L 97,95.599564 C 97,101.55904 95.121462,106.31051 92.286985,107.52042 C 88.918376,108.95831 70.483914,108.80944 67.64389,107.3214 z M 72.730731,94.719827 C 72.521007,92.398922 72.351908,94.55 72.354955,99.5 C 72.358003,104.45 72.529595,106.34892 72.736272,103.71983 C 72.942948,101.09073 72.940455,97.040732 72.730731,94.719827 z M 80,107 C 80,106.45 79.576558,106 79.059017,106 C 78.541476,106 77.839919,106.45 77.5,107 C 77.160081,107.55 77.583524,108 78.440983,108 C 79.298442,108 80,107.55 80,107 z M 82.5,106 C 81.504514,104.9 80.197269,104.03553 79.595012,104.07895 C 78.962931,104.12452 79.028455,104.37113 79.75,104.66228 C 80.4375,104.93969 81,105.80417 81,106.58333 C 81,107.3625 81.744744,108 82.654988,108 C 84.143308,108 84.1277,107.79859 82.5,106 z M 68.730731,93.719827 C 68.521007,91.398922 68.351908,93.55 68.354955,98.5 C 68.358003,103.45 68.529595,105.34892 68.736272,102.71983 C 68.942948,100.09073 68.940455,96.040732 68.730731,93.719827 z M 75.728468,96.25 C 75.512724,94.1875 75.336206,95.875 75.336206,100 C 75.336206,104.125 75.512724,105.8125 75.728468,103.75 C 75.944213,101.6875 75.944213,98.3125 75.728468,96.25 z M 93,103.40894 C 93,103.21855 92.325,103.32179 91.5,103.63837 C 90.675,103.95496 90,104.67093 90,105.22943 C 90,105.81474 90.635407,105.71755 91.5,105 C 92.325,104.31531 93,103.59933 93,103.40894 z M 79.689326,97.25 C 79.437798,96.2875 79.232003,97.075 79.232003,99 C 79.232003,100.925 79.437798,101.7125 79.689326,100.75 C 79.940853,99.7875 79.940853,98.2125 79.689326,97.25 z M 93.1875,92.316886 C 92.465625,92.028015 91.603125,92.063542 91.270833,92.395833 C 90.938542,92.728125 91.529167,92.964474 92.583333,92.921053 C 93.748276,92.873069 93.985233,92.636112 93.1875,92.316886 z M 73.386913,68.817021 C 73.098103,68.349717 72.442898,68.226274 71.930902,68.542705 C 70.62252,69.35133 70.769844,69.666667 72.456011,69.666667 C 73.256818,69.666667 73.675723,69.284326 73.386913,68.817021 z M 89,68.833333 C 89,68.375 88.576558,68 88.059017,68 C 87.541476,68 86.886271,68.375 86.603006,68.833333 C 86.31974,69.291667 86.743182,69.666667 87.543989,69.666667 C 88.344795,69.666667 89,69.291667 89,68.833333 z M 53,103 C 53,102.45 53.638196,102 54.418213,102 C 55.198229,102 56.49016,101.74914 57.28917,101.44253 C 58.08818,101.13592 59.010861,101.58592 59.339573,102.44253 C 59.809836,103.66801 59.197871,104 56.468615,104 C 54.560877,104 53,103.55 53,103 z M 101,103 C 101,102.45 101.9,102 103,102 C 104.1,102 105.3,101.8875 105.66667,101.75 C 106.03333,101.6125 106.52083,102.0625 106.75,102.75 C 107.02327,103.56982 106.10556,104 104.08333,104 C 102.3875,104 101,103.55 101,103 z M 50.725393,96.057905 C 50.113781,93.719094 50.549514,93.221599 54.75,91.46284 C 56.5375,90.714407 58,89.404091 58,88.551027 C 58,87.697962 58.675,87 59.5,87 C 60.325,87 61,87.830256 61,88.845012 C 61,90.994211 58.458316,93.4714 55.25,94.449107 C 54.0125,94.826225 53,95.779451 53,96.567388 C 53,98.684703 51.313534,98.306956 50.725393,96.057905 z M 106.9973,96.833333 C 106.99581,96.1 105.30831,94.599126 103.2473,93.498057 C 99.510421,91.501682 98.156581,88.114473 100.75,87.25 C 101.4375,87.020833 102,87.549477 102,88.424764 C 102,89.351459 103.69274,90.693495 106.05257,91.637709 C 109.17115,92.885519 110.0354,93.729852 109.80257,95.301285 C 109.46489,97.580309 107.00154,98.925626 106.9973,96.833333 z M 106,87.592376 C 106,85.720577 101.95426,84.54368 98.5,85.410644 C 96.451623,85.924754 96,85.673364 96,84.019052 C 96,82.247194 96.649968,82 101.30887,82 C 107.25413,82 110.40111,83.678687 109.84726,86.554614 C 109.3944,88.906135 106,89.821743 106,87.592376 z M 90,86.5 C 90,85.675 90.176855,85 90.393011,85 C 90.609167,85 91.045044,85.675 91.361626,86.5 C 91.678209,87.325 91.501354,88 90.968615,88 C 90.435877,88 90,87.325 90,86.5 z M 55.25,76.231727 C 51.94227,75.68657 52.509063,74 56,74 C 57.65,74 59,74.423442 59,74.940983 C 59,76.267854 57.85676,76.661355 55.25,76.231727 z M 103.25,76.231727 C 99.94227,75.68657 100.50906,74 104,74 C 105.65,74 107,74.423442 107,74.940983 C 107,76.267854 105.85676,76.661355 103.25,76.231727 z M 90.02896,75.03906 C 89.219889,74.527387 88.818263,73.848403 89.13646,73.530207 C 89.454656,73.212011 90.284224,73.637543 90.979944,74.475834 C 92.422537,76.214052 92.145931,76.377874 90.02896,75.03906 z M 53.380002,71.547887 C 52.20655,68.48992 55.661778,66.867447 58.935698,68.939097 C 60.125538,69.691997 60.147382,70.11749 59.063253,71.423785 C 57.423014,73.400151 54.118473,73.472311 53.380002,71.547887 z M 101.05788,71.569739 C 99.304784,69.45739 103.18418,67.49302 106.06457,69.034555 C 107.71583,69.918286 107.89151,70.425798 106.94212,71.569739 C 106.28927,72.356382 104.96531,73 104,73 C 103.03469,73 101.71073,72.356382 101.05788,71.569739 z M 71,58.059017 C 71,57.541476 71.444846,56.843104 71.988546,56.507079 C 72.555406,56.15674 72.723053,56.558137 72.381557,57.448062 C 71.716766,59.180479 71,59.497449 71,58.059017 z M 87.564293,57.293128 C 87.021608,55.86793 87.136472,55.753066 88.124088,56.733333 C 88.807506,57.411667 89.114759,58.218574 88.806872,58.526461 C 88.498985,58.834349 87.939824,58.279349 87.564293,57.293128 z M 79.379262,55.236405 C 78.397543,54.254686 78.212377,53.387623 78.848582,52.751418 C 80.14123,51.45877 82.053031,52.698229 81.398294,54.404447 C 81.024933,55.377409 81.585153,55.610797 83.441968,55.255845 C 84.848885,54.986895 86,54.991846 86,55.266846 C 86,56.612183 80.730814,56.587957 79.379262,55.236405 z M 74.75,55.337719 C 75.4375,55.060307 76.5625,55.060307 77.25,55.337719 C 77.9375,55.615132 77.375,55.842105 76,55.842105 C 74.625,55.842105 74.0625,55.615132 74.75,55.337719 z M 1.2181527e-24,20 L 1.2181527e-24,1.8221535e-14 L 120,1.8221535e-14 L 319.71217,1.8221535e-14 L 320.50929,20 L 318.51649,40 L 120,40 L 1.2181527e-24,40 L 1.2181527e-24,20 z"
         style="fill:#5a5a5a;fill-opacity:0.39215686000000000"
         sodipodi:nodetypes="ccccccccccsssccsssccsssssscccccccssssssssscccsssscccssssscccsccssccsssccssssccssccssccsssccssccssccssccsssccssssccssssccssssssccsssssccssssccsssccssccssccssccssccsssccssccssccssssccsscccccccccc" />
      <path
         id="path2514"
         d="M 70.207542,99.25 C 70.042701,91.903155 69.699701,90 68.540442,90 C 67.4062,90 67.005795,91.838813 66.743988,98.25 L 66.407091,106.5 L 66.203545,98.25 C 66.087644,93.552364 65.56941,90 65,90 C 64.45,90 64,89.085877 64,87.968615 C 64,86.851354 63.325,85.678209 62.5,85.361626 C 61.675,85.045044 61,84.173291 61,83.424396 C 61,82.624904 61.619261,82.300402 62.5,82.638374 C 63.723423,83.107845 64,82.180136 64,77.606989 L 64,72 L 69.75,71.984687 C 73.831396,71.973818 75.064712,71.68807 74,71 C 72.965454,70.331425 74.827269,70.065086 80,70.141681 C 87.038479,70.245903 87.269239,70.31735 83.75,71.302734 L 80,72.352731 L 80,78.061355 C 80,83.047072 80.316586,83.977415 82.5,85.408043 C 83.875,86.308978 85,87.710732 85,88.523053 C 85,89.646625 86.315932,90 90.5,90 L 96,90 L 96,96.545455 C 96,102.16162 95.651515,103.43939 93.545455,105.54545 C 88.49796,110.59295 81.307509,107.71154 80.305336,100.23978 C 79.521524,94.396031 78.179806,94.923827 77.737242,101.25 L 77.369965,106.5 L 77.16967,100.5 C 76.844222,90.750961 75.033186,90.120482 75.015313,99.75 C 75.006361,104.57312 74.584621,108 74,108 C 73.407407,108 73,104.33333 73,99 C 73,87.108375 71.170973,87.311156 70.745068,99.25 L 70.415084,108.5 L 70.207542,99.25 z M 91.081787,106 C 91.586804,106 92,105.50186 92,104.89301 C 92,104.28417 91.325,104.04504 90.5,104.36163 C 89.456864,104.76192 89,104.29043 89,102.81363 C 89,100.7512 89.057794,100.74233 91.006131,102.50555 C 93.52732,104.78719 94.158334,104.15767 94.184376,99.334832 C 94.228989,91.072944 94.406749,91.375 89.5,91.375 C 87.025,91.375 85,91.740625 85,92.1875 C 85,92.634375 85.45,93 86,93 C 86.55,93 87,93.476558 87,94.059017 C 87,94.641476 86.590609,94.865016 86.090242,94.555773 C 83.870559,93.183933 82,95.297973 82,99.178417 C 82,104.19379 85.187008,107.57232 88.831787,106.42077 C 89.564271,106.18935 90.576771,106 91.081787,106 z M 85,103 C 85,102.45 85.45,102 86,102 C 86.55,102 87,102.45 87,103 C 87,103.55 86.55,104 86,104 C 85.45,104 85,103.55 85,103 z M 83.510081,100.01631 C 83.164618,99.45734 83.583524,99 84.440983,99 C 86.197509,99 86.456142,99.600055 85.069098,100.45729 C 84.557102,100.77373 83.855545,100.57528 83.510081,100.01631 z M 90.270833,99.395833 C 90.603125,99.063542 91.465625,99.028015 92.1875,99.316886 C 92.985233,99.636112 92.748276,99.873069 91.583333,99.921053 C 90.529167,99.964474 89.938542,99.728125 90.270833,99.395833 z M 91.5,97 C 91.160081,96.45 91.358524,96 91.940983,96 C 92.523442,96 93,96.45 93,97 C 93,97.55 92.801558,98 92.559017,98 C 92.316476,98 91.839919,97.55 91.5,97 z M 89,93.968615 C 89,93.435877 89.675,93 90.5,93 C 91.325,93 92,93.176855 92,93.393011 C 92,93.609167 91.325,94.045044 90.5,94.361626 C 89.675,94.678209 89,94.501354 89,93.968615 z M 82.989223,92.512986 C 84.555083,90.626239 83.547884,86.42422 81.325355,85.571356 C 80.284656,85.172002 78.86498,85.690576 77.636893,86.918663 C 75.943465,88.612091 75.816212,89.301213 76.798731,91.457608 C 78.089584,94.290721 81.089394,94.80214 82.989223,92.512986 z M 75.623721,81.75 C 75.711795,77.656763 75.37564,76 74.457055,76 C 73.747341,76 72.964752,75.4375 72.717967,74.75 C 72.418445,73.915581 71.555038,74.304151 70.120979,75.918754 C 68.485206,77.760467 68.116658,79.104919 68.576152,81.554233 C 68.93465,83.465191 68.730606,85.048461 68.073495,85.454578 C 65.990388,86.742009 68.18409,88.109796 71.842902,87.804827 L 75.5,87.5 L 75.623721,81.75 z M 51.015313,95.347825 C 51.004874,93.880726 51.894629,92.883781 53.810488,92.215909 C 55.356256,91.677051 57.402684,90.454459 58.358107,89.499036 C 59.313529,88.543614 60.354402,88.021069 60.671158,88.337824 C 61.928451,89.595118 59.893284,92.017749 56.328556,93.507187 C 54.2614,94.3709 52.223711,95.62262 51.800358,96.288787 C 51.302784,97.071745 51.025211,96.739045 51.015313,95.347825 z M 108,96.10858 C 108,95.618299 106.23827,94.512257 104.08505,93.650709 C 99.603604,91.857588 98.288874,90.311126 99.887132,88.712868 C 100.70429,87.895711 101,87.921015 101,88.808097 C 101,89.47255 102.8,90.736411 105,91.616677 C 107.69267,92.69407 109,93.835336 109,95.10858 C 109,96.148861 108.775,97 108.5,97 C 108.225,97 108,96.598861 108,96.10858 z M 51.032479,87.060688 C 50.384213,85.849391 50.35217,84.900381 50.947122,84.53268 C 51.777313,84.019594 54,86.860188 54,88.434259 C 54,89.771373 51.983723,88.838103 51.032479,87.060688 z M 106.98635,88.372445 C 106.97884,87.8926 106.70135,86.4875 106.36971,85.25 C 106.00793,83.899995 106.21339,83 106.88337,83 C 107.49752,83 108.03163,84.0125 108.07029,85.25 C 108.13735,87.396901 108.17995,87.408356 109,85.5 C 109.66123,83.961228 109.87564,83.875337 109.92971,85.127555 C 109.96837,86.022711 109.325,87.315311 108.5,88 C 107.675,88.684689 106.99386,88.852289 106.98635,88.372445 z M 56.078947,83.75 C 56.028888,82.640351 56.73183,82 58,82 C 59.111111,82 60,82.666667 60,83.5 C 60,84.325 59.523442,85 58.940983,85 C 58.358524,85 58.160081,84.55 58.5,84 C 58.839919,83.45 58.678976,83 58.14235,83 C 57.605724,83 56.939693,83.5625 56.662281,84.25 C 56.360964,84.996741 56.12611,84.795438 56.078947,83.75 z M 96,84 C 96,83.45 96.45,83 97,83 C 97.55,83 98,83.45 98,84 C 98,84.55 97.55,85 97,85 C 96.45,85 96,84.55 96,84 z M 101.21057,83.461963 C 100.14523,82.254065 100.18867,82 101.46057,82 C 102.30726,82 103,82.675 103,83.5 C 103,85.323667 102.84975,85.320473 101.21057,83.461963 z M 70.325126,65.925126 C 69.740075,65.340075 68.439477,64.740765 67.434908,64.593325 C 64.573829,64.173408 64.581208,62.147937 67.448576,60.841477 C 70.69391,59.362804 73.07918,60.994742 71.121081,63.354106 C 70.13253,64.545238 70.363534,64.767754 72.462756,64.646488 C 74.815908,64.510553 76.226236,63 74,63 C 72.385957,63 72.854064,60.269979 74.581787,59.606989 C 76.991681,58.682226 77.732821,58.86136 78.37033,60.522681 C 79.073415,62.354891 75.377325,66.351233 73.851722,65.408359 C 73.260291,65.042835 72.464197,65.248914 72.082624,65.866312 C 71.592401,66.659508 71.076764,66.676764 70.325126,65.925126 z M 87.5,65 C 87.150874,63.9 86.397404,63 85.825624,63 C 85.253843,63 85.045044,63.675 85.361626,64.5 C 86.143064,66.536395 85.010086,66.396052 83.450561,64.263275 C 82.244808,62.614309 82.083665,62.614309 80.261578,64.263275 C 78.024451,66.287847 77,66.4669 77,64.833333 C 77,64.191667 77.291815,63.958482 77.648479,64.315145 C 78.301241,64.967908 81.596437,61.710689 82.241719,59.774842 C 82.862873,57.911381 86.783702,60.002062 87.419638,62.535835 C 87.759794,63.891126 88.479531,65 89.019052,65 C 89.558573,65 90,65.45 90,66 C 90,67.791812 88.151397,67.052371 87.5,65 z M 89.667774,64.014731 C 88.126561,61.405667 88.08385,60.905054 89.360657,60.415097 C 91.300541,59.670694 95.233973,61.798081 94.727432,63.317704 C 94.510678,63.967967 93.966185,64.275 93.517448,64 C 93.068711,63.725 92.42175,64.297684 92.079757,65.272631 C 91.551471,66.778658 91.188709,66.58947 89.667774,64.014731 z M 81,65.559017 C 81,65.316476 81.45,64.839919 82,64.5 C 82.55,64.160081 83,64.358524 83,64.940983 C 83,65.523442 82.55,66 82,66 C 81.45,66 81,65.801558 81,65.559017 z"
         style="fill:#464646;fill-opacity:0.39215686000000000" />
    </g>
  </g>
</svg>
